<svg width="33" height="31" viewBox="0 0 33 31" fill="none" xmlns="http://www.w3.org/2000/svg">
<path id="icon" fill-rule="evenodd" clip-rule="evenodd" d="M32.0574 21.8014L21.6204 3.83655C20.5726 2.00756 18.6197 0.872367 16.5076 0.869877C14.3953 0.867388 12.4417 1.9979 11.3808 3.83662L0.940015 21.808C-0.142627 23.641 -0.16712 25.9378 0.88154 27.8109C1.93107 29.6856 3.89624 30.8523 6.0338 30.8698L26.9482 30.8699C29.108 30.8487 31.0695 29.6856 32.1188 27.8126C33.167 25.9418 33.1435 23.6501 32.0574 21.8014ZM3.50591 23.3323L13.9545 5.34763C14.4836 4.4305 15.4541 3.86891 16.5035 3.87015C17.5528 3.87138 18.5229 4.43529 19.0433 5.3436L29.4885 23.3226C30.036 24.2546 30.0477 25.4019 29.5229 26.3385C28.9974 27.2765 28.015 27.8591 26.9331 27.8697L6.0453 27.8696C4.9866 27.8609 4.00225 27.2765 3.47664 26.3376C2.95161 25.3998 2.96387 24.25 3.50591 23.3323ZM16.5025 24.8694C17.3256 24.8694 17.9928 24.1977 17.9928 23.3693C17.9928 22.5408 17.3256 21.8691 16.5025 21.8691C15.6794 21.8691 15.0121 22.5408 15.0121 23.3693C15.0121 24.1977 15.6794 24.8694 16.5025 24.8694ZM17.9972 9.86814H15.0165V20.369H17.9972V9.86814Z" fill="#FF6600"/>
</svg>
