<svg width="24" height="25" viewBox="0 0 24 25" fill="none" xmlns="http://www.w3.org/2000/svg">
<g id="24 / various / moon">
<path id="icon" fill-rule="evenodd" clip-rule="evenodd" d="M13 9.47935C13 7.49118 13.8205 5.63784 15.2398 4.31164L16.7174 2.93102L14.7317 2.58171C14.1634 2.48175 13.5847 2.43112 13 2.43112C7.47715 2.43112 3 6.93912 3 12.5C3 18.0609 7.47715 22.5689 13 22.5689C16.3854 22.5689 19.4843 20.8611 21.3266 18.0778L22.4432 16.3909L20.4336 16.5143C20.2898 16.5231 20.1452 16.5276 20 16.5276C16.134 16.5276 13 13.372 13 9.47935ZM13 20.5551C8.58172 20.5551 5 16.9487 5 12.5C5 8.21863 8.31735 4.71739 12.5051 4.46006C11.5367 5.9235 11 7.65873 11 9.47935C11 13.9489 14.2137 17.6628 18.4414 18.406C16.9878 19.7651 15.061 20.5551 13 20.5551Z" fill="#494949"/>
</g>
</svg>
