<svg width="24" height="25" viewBox="0 0 24 25" fill="none" xmlns="http://www.w3.org/2000/svg">
<g id="24 / various / sun">
<path id="icon" fill-rule="evenodd" clip-rule="evenodd" d="M5.92639 18.615L7.61084 23.1682L11.9995 21.1479L16.3882 23.1682L18.0727 18.615L22.5948 16.9189L20.5883 12.5L22.5948 8.08107L18.0727 6.38501L16.3882 1.83176L11.9995 3.85209L7.61084 1.83176L5.92639 6.38501L1.4043 8.08107L3.41081 12.5L1.4043 16.9189L5.92639 18.615ZM15.2645 20.4367L11.9995 18.9336L8.73456 20.4367L7.4814 17.0493L4.11718 15.7875L5.60993 12.5L4.11718 9.21252L7.4814 7.95073L8.73456 4.56333L11.9995 6.06637L15.2645 4.56333L16.5177 7.95073L19.8819 9.21252L18.3891 12.5L19.8819 15.7875L16.5177 17.0493L15.2645 20.4367ZM11.9995 17.5344C9.23811 17.5344 6.99953 15.2804 6.99953 12.5C6.99953 9.71955 9.23811 7.46555 11.9995 7.46555C14.761 7.46555 16.9995 9.71955 16.9995 12.5C16.9995 15.2804 14.761 17.5344 11.9995 17.5344ZM14.9995 12.5C14.9995 14.1683 13.6564 15.5207 11.9995 15.5207C10.3427 15.5207 8.99953 14.1683 8.99953 12.5C8.99953 10.8317 10.3427 9.47933 11.9995 9.47933C13.6564 9.47933 14.9995 10.8317 14.9995 12.5Z" fill="#494949"/>
</g>
</svg>
